# xmcd
#
# Track frame offsets: 
#        150
#        14429
#        35971
#        61162
#        78573
#        97320
#        121027
#        138919
#        159535
#        176562
#        193569
#        216091
#        237791
#        257072
#        276436
#        291027
#        304575
#        323647
#
# Disc length: 4551 seconds
#
# Revision: 0
# Processed by: cddbd v1.4PL0 Copyright (c) Steve Scherf et al.
# Submitted via: ExactAudioCopy v0.95a3
#
DISCID=0311c512
DTITLE=Various Artist - 女儿红-台湾八点党2003全胜主题曲
DYEAR=2003
DGENRE=Other
TTITLE0=Twins-多谢失恋
TTITLE1=SHE-我和幸福有约定
TTITLE2=潘美辰-我可以为你挡死
TTITLE3=梁静茹-为我好
TTITLE4=蔡依琳-假面的告白
TTITLE5=那英-爱上你等于爱上寂寞
TTITLE6=陈琳-不想骗自己
TTITLE7=刘若英-成全
TTITLE8=纪如景-值得一辈子去爱
TTITLE9=叶倩文-伤逝
TTITLE10=周迅-看海
TTITLE11=陶晶莹-太委屈
TTITLE12=江美琪-星晴
TTITLE13=周蕙-约定
TTITLE14=郑希怡-有心人
TTITLE15=卢巧音-至少走得比你早
TTITLE16=陈慧琳-记事本
TTITLE17=许慧欣-孤单芭蕾
EXTD=
EXTT0=
EXTT1=
EXTT2=
EXTT3=
EXTT4=
EXTT5=
EXTT6=
EXTT7=
EXTT8=
EXTT9=
EXTT10=
EXTT11=
EXTT12=
EXTT13=
EXTT14=
EXTT15=
EXTT16=
EXTT17=
PLAYORDER=
